<svg xmlns="http://www.w3.org/2000/svg" xmlns:xlink="http://www.w3.org/1999/xlink" width="880" height="480" xml:space="preserve" overflow="hidden">
  <defs>
    <style>.gr-bg { fill: #ffffff; }
  .gr-axis { fill: #333333; }
  .gr-stroke { stroke: #333333; }
  .gr-text { fill: #333333; }
  @media (prefers-color-scheme: dark) {
    .gr-bg { fill: #1a1a1a; }
    .gr-axis { fill: #e0e0e0; }
    .gr-stroke { stroke: #e0e0e0; }
    .gr-text { fill: #e0e0e0; }
  }</style>
  </defs>
  <rect class="gr-bg" x="0" y="0" width="880" height="480"/>
  <g transform="translate(-313 -85)">
    <path d="M912 150 912 510.602 908 510.602 908 150ZM904 152 910 140 916 152ZM916 508.602 910 520.602 904 508.602Z" class="gr-axis"/>
    <text font-family="Yu Gothic UI,Yu Gothic UI_MSFontService,sans-serif" font-weight="400" font-size="21" transform="translate(873.748 127)" class="gr-text">外交的</text>
    <text font-family="Yu Gothic UI,Yu Gothic UI_MSFontService,sans-serif" font-weight="400" font-size="21" transform="translate(873.748 547)" class="gr-text">内向的</text>
    <path d="M730 340 1090.6 340 1090.6 344 730 344ZM732 348 720 342 732 336ZM1088.6 336 1100.6 342 1088.6 348Z" class="gr-axis"/>
    <text font-family="Yu Gothic UI,Yu Gothic UI_MSFontService,sans-serif" font-weight="400" font-size="21" transform="translate(1110.09 348)" class="gr-text">直感的</text>
    <text font-family="Yu Gothic UI,Yu Gothic UI_MSFontService,sans-serif" font-weight="400" font-size="21" transform="translate(637.402 348)" class="gr-text">論理的</text>
    <text font-family="Yu Gothic UI,Yu Gothic UI_MSFontService,sans-serif" font-weight="400" font-size="24" transform="translate(1001.65 238)" class="gr-text">演出家</text>
    <text font-family="Yu Gothic UI,Yu Gothic UI_MSFontService,sans-serif" font-weight="400" font-size="24" transform="translate(1001.65 479)" class="gr-text">求道者</text>
    <text font-family="Yu Gothic UI,Yu Gothic UI_MSFontService,sans-serif" font-weight="400" font-size="24" transform="translate(763.627 238)" class="gr-text">戦略家</text>
    <text font-family="Yu Gothic UI,Yu Gothic UI_MSFontService,sans-serif" font-weight="400" font-size="24" transform="translate(763.627 479)" class="gr-text">研究者</text>
    <path d="M820 307.5C820 304.462 823.358 302 827.5 302 831.642 302 835 304.462 835 307.5 835 310.538 831.642 313 827.5 313 823.358 313 820 310.538 820 307.5Z" stroke="#292929" stroke-width="2" stroke-miterlimit="8" fill="#B2B2B2" fill-rule="evenodd"/>
    <path d="M848 279C848 276.239 852.701 274 858.5 274 864.299 274 869 276.239 869 279 869 281.761 864.299 284 858.5 284 852.701 284 848 281.761 848 279Z" stroke="#292929" stroke-width="2" stroke-miterlimit="8" fill="#B2B2B2" fill-rule="evenodd"/>
    <path d="M820 285.5C820 274.178 827.611 265 837 265 846.389 265 854 274.178 854 285.5 854 296.822 846.389 306 837 306 827.611 306 820 296.822 820 285.5Z" stroke="#292929" stroke-width="2" stroke-miterlimit="8" fill="#B2B2B2" fill-rule="evenodd"/>
    <path d="M826 259C826 252.925 830.925 248 837 248 843.075 248 848 252.925 848 259 848 265.075 843.075 270 837 270 830.925 270 826 265.075 826 259Z" stroke="#292929" stroke-width="2" stroke-miterlimit="8" fill="#B2B2B2" fill-rule="evenodd"/>
    <path d="M809.684 270.276C811.262 268.29 816.257 269.634 820.84 273.276 825.423 276.919 827.859 281.482 826.281 283.467 824.703 285.453 819.708 284.11 815.125 280.468 810.541 276.825 808.106 272.262 809.684 270.276Z" stroke="#292929" stroke-width="2" stroke-miterlimit="8" fill="#B2B2B2" fill-rule="evenodd"/>
    <path d="M841 307.5C841 304.462 844.358 302 848.5 302 852.642 302 856 304.462 856 307.5 856 310.538 852.642 313 848.5 313 844.358 313 841 310.538 841 307.5Z" stroke="#292929" stroke-width="2" stroke-miterlimit="8" fill="#B2B2B2" fill-rule="evenodd"/>
    <path d="M973 307.5C973 304.462 976.358 302 980.5 302 984.642 302 988 304.462 988 307.5 988 310.538 984.642 313 980.5 313 976.358 313 973 310.538 973 307.5Z" stroke="#292929" stroke-width="2" stroke-miterlimit="8" fill="#B2B2B2" fill-rule="evenodd"/>
    <path d="M1001 279C1001 276.239 1005.7 274 1011.5 274 1017.3 274 1022 276.239 1022 279 1022 281.761 1017.3 284 1011.5 284 1005.7 284 1001 281.761 1001 279Z" stroke="#292929" stroke-width="2" stroke-miterlimit="8" fill="#B2B2B2" fill-rule="evenodd"/>
    <path d="M973 285.5C973 274.178 980.611 265 990 265 999.389 265 1007 274.178 1007 285.5 1007 296.822 999.389 306 990 306 980.611 306 973 296.822 973 285.5Z" stroke="#292929" stroke-width="2" stroke-miterlimit="8" fill="#B2B2B2" fill-rule="evenodd"/>
    <path d="M979 259C979 252.925 983.925 248 990 248 996.075 248 1001 252.925 1001 259 1001 265.075 996.075 270 990 270 983.925 270 979 265.075 979 259Z" stroke="#292929" stroke-width="2" stroke-miterlimit="8" fill="#B2B2B2" fill-rule="evenodd"/>
    <path d="M962.866 270.276C964.445 268.29 969.44 269.634 974.023 273.276 978.606 276.919 981.042 281.482 979.463 283.467 977.885 285.453 972.89 284.11 968.307 280.468 963.724 276.825 961.288 272.262 962.866 270.276Z" stroke="#292929" stroke-width="2" stroke-miterlimit="8" fill="#B2B2B2" fill-rule="evenodd"/>
    <path d="M994 307.5C994 304.462 997.358 302 1001.5 302 1005.64 302 1009 304.462 1009 307.5 1009 310.538 1005.64 313 1001.5 313 997.358 313 994 310.538 994 307.5Z" stroke="#292929" stroke-width="2" stroke-miterlimit="8" fill="#B2B2B2" fill-rule="evenodd"/>
    <path d="M0 5.5C-9.5485e-16 2.46243 3.35786 -7.00223e-16 7.5-1.40045e-15 11.6421-2.80089e-15 15 2.46243 15 5.5 15 8.53757 11.6421 11 7.5 11 3.35786 11-4.77425e-15 8.53757 0 5.5Z" stroke="#292929" stroke-width="2" stroke-miterlimit="8" fill="#B2B2B2" fill-rule="evenodd" transform="matrix(-1 0 0 1 847 440)"/>
    <path d="M0 4.5C-1.40045e-15 2.01472 4.92487 -5.7291e-16 11-1.14582e-15 17.0751-2.29164e-15 22 2.01472 22 4.5 22 6.98528 17.0751 9 11 9 4.92487 9-7.00223e-15 6.98528 0 4.5Z" stroke="#292929" stroke-width="2" stroke-miterlimit="8" fill="#B2B2B2" fill-rule="evenodd" transform="matrix(-1 0 0 1 820 413)"/>
    <path d="M0 20.5C-2.16433e-15 9.17816 7.61116-2.60992e-15 17-5.21985e-15 26.3888-1.04397e-14 34 9.17816 34 20.5 34 31.8218 26.3888 41 17 41 7.61116 41-1.08216e-14 31.8218 0 20.5Z" stroke="#292929" stroke-width="2" stroke-miterlimit="8" fill="#B2B2B2" fill-rule="evenodd" transform="matrix(-1 0 0 1 847 403)"/>
    <path d="M0 11C-1.40045e-15 4.92487 4.92487-1.40045e-15 11-2.80089e-15 17.0751-5.60179e-15 22 4.92487 22 11 22 17.0751 17.0751 22 11 22 4.92487 22-7.00223e-15 17.0751 0 11Z" stroke="#292929" stroke-width="2" stroke-miterlimit="8" fill="#B2B2B2" fill-rule="evenodd" transform="matrix(-1 0 0 1 841 386)"/>
    <path d="M0 4.59318C-1.34955e-15 2.05643 4.7459 -5.84773e-16 10.6003-1.16955e-15 16.4546-2.33909e-15 21.2005 2.05643 21.2005 4.59318 21.2005 7.12992 16.4546 9.18635 10.6003 9.18635 4.7459 9.18635-6.74777e-15 7.12992 0 4.59318Z" stroke="#292929" stroke-width="2" stroke-miterlimit="8" fill="#B2B2B2" fill-rule="evenodd" transform="matrix(-0.782857 0.622202 0.622202 0.782857 854.663 404.903)"/>
    <path d="M0 5.5C-9.5485e-16 2.46243 3.35786 -7.00223e-16 7.5-1.40045e-15 11.6421-2.80089e-15 15 2.46243 15 5.5 15 8.53757 11.6421 11 7.5 11 3.35786 11-4.77425e-15 8.53757 0 5.5Z" stroke="#292929" stroke-width="2" stroke-miterlimit="8" fill="#B2B2B2" fill-rule="evenodd" transform="matrix(-1 0 0 1 826 440)"/>
    <path d="M992 444C992 441.239 995.358 439 999.5 439 1003.64 439 1007 441.239 1007 444 1007 446.761 1003.64 449 999.5 449 995.358 449 992 446.761 992 444Z" stroke="#292929" stroke-width="2" stroke-miterlimit="8" fill="#B2B2B2" fill-rule="evenodd"/>
    <path d="M973 444C973 441.239 976.358 439 980.5 439 984.642 439 988 441.239 988 444 988 446.761 984.642 449 980.5 449 976.358 449 973 446.761 973 444Z" stroke="#292929" stroke-width="2" stroke-miterlimit="8" fill="#B2B2B2" fill-rule="evenodd"/>
    <path d="M973 423.5C973 412.178 980.611 403 990 403 999.389 403 1007 412.178 1007 423.5 1007 434.822 999.389 444 990 444 980.611 444 973 434.822 973 423.5Z" stroke="#292929" stroke-width="2" stroke-miterlimit="8" fill="#B2B2B2" fill-rule="evenodd"/>
    <path d="M979 397C979 390.925 983.925 386 990 386 996.075 386 1001 390.925 1001 397 1001 403.075 996.075 408 990 408 983.925 408 979 403.075 979 397Z" stroke="#292929" stroke-width="2" stroke-miterlimit="8" fill="#B2B2B2" fill-rule="evenodd"/>
    <path d="M1006.4 410.604C1008.67 411.732 1008.4 416.897 1005.8 422.141 1003.2 427.385 999.246 430.722 996.974 429.594 994.701 428.467 994.969 423.301 997.572 418.057 1000.17 412.813 1004.13 409.476 1006.4 410.604Z" stroke="#292929" stroke-width="2" stroke-miterlimit="8" fill="#B2B2B2" fill-rule="evenodd"/>
    <path d="M0 4.59318C-1.34955e-15 2.05643 4.7459 -5.84773e-16 10.6003-1.16955e-15 16.4546-2.33909e-15 21.2005 2.05643 21.2005 4.59318 21.2005 7.12992 16.4546 9.18635 10.6003 9.18635 4.7459 9.18635-6.74777e-15 7.12992 0 4.59318Z" stroke="#292929" stroke-width="2" stroke-miterlimit="8" fill="#B2B2B2" fill-rule="evenodd" transform="matrix(0.444554 0.895752 0.895752 -0.444554 969.761 412.646)"/>
    <rect x="317.5" y="85.5001" width="875" height="475" stroke="#B2B2B2" stroke-width="0.333333" stroke-miterlimit="8" fill="none"/>
    <text font-family="Verdana,Verdana_MSFontService,sans-serif" font-weight="700" font-size="21" transform="translate(326.864 116)" class="gr-text">Personality Profiling</text>
    <text font-family="Verdana,Verdana_MSFontService,sans-serif" font-weight="400" font-size="21" transform="translate(370.319 171)" class="gr-text">Q1.</text>
    <text font-family="Verdana,Verdana_MSFontService,sans-serif" font-weight="400" font-size="21" transform="translate(445.519 171)" class="gr-text">Are you …?</text>
    <text font-family="Verdana,Verdana_MSFontService,sans-serif" font-weight="400" font-size="21" transform="translate(370.319 197)" class="gr-text">Q2.</text>
    <text font-family="Verdana,Verdana_MSFontService,sans-serif" font-weight="400" font-size="21" transform="translate(445.519 197)" class="gr-text">Do you</text>
    <text font-family="Verdana,Verdana_MSFontService,sans-serif" font-weight="400" font-size="21" transform="translate(528.999 197)" class="gr-text">…?</text>
    <text font-family="Verdana,Verdana_MSFontService,sans-serif" font-weight="400" font-size="21" transform="translate(392.819 222)" class="gr-text">…</text>
    <text font-family="Verdana,Verdana_MSFontService,sans-serif" font-weight="400" font-size="21" transform="translate(370.319 248)" class="gr-text">Q50.</text>
    <text font-family="Verdana,Verdana_MSFontService,sans-serif" font-weight="400" font-size="21" transform="translate(445.519 248)" class="gr-text">What do you…?</text>
    <path d="M0 75 0 40.2143C-5.15619e-15 24.8167 12.4822 12.3345 27.8797 12.3345L49.4251 12.3345 49.4251 0 81 18.75 49.4251 37.5 49.4251 25.1655 27.8797 25.1655C19.5685 25.1655 12.8309 31.903 12.8309 40.2143L12.831 75Z" fill="#B2B2B2" fill-rule="evenodd" transform="matrix(1 0 0 -1 492 367)"/>
  </g>
</svg>